:version 1.10
:name ASF
:units
  mass 1
  length 1
  angle deg
:documentation
  ASF file generated by Kaydara
:root
  axis xyz
  order  tx ty tz rx ry rz
  position 0 0 0
  orientation 0 0 0
:bonedata
  begin
    id 1
    name RightUpLegDummy
    direction -1 2.30186e-007 8.31532e-007
    length 4.04083
    axis 0 0 0 xyz
  end
  begin
    id 2
    name RightUpLeg
    direction -0.000919234 -0.999985 0.00544864
    length 17.4221
    axis -3.80308 -0.00076134 -0.0523649 xyz
    dof rx ry rz
  end
  begin
    id 3
    name RightLeg
    direction -0.000919271 -0.999984 -0.00555045
    length 17.1239
    axis 4.00314 0.0181274 -0.183583 xyz
    dof rx ry rz
  end
  begin
    id 4
    name RightFoot
    direction -2.57843e-005 -4.04509e-007 1
    length 6.72091
    axis 8.18909e-005 -0.122003 -0.403008 xyz
    dof rx ry rz
  end
  begin
    id 5
    name RightToes
    direction 0.00116825 -0.014069 0.9999
    length 3.85082
    axis 0.000514414 0.540638 -0.356797 xyz
    dof rx ry rz
  end
  begin
    id 6
    name SpineDummy
    direction 0.0168869 0.966876 -0.254689
    length 6.99894
    axis 0 0 0 xyz
  end
  begin
    id 7
    name Spine
    direction -0.0132008 0.999903 0.00446247
    length 11.1999
    axis -0.00148109 0.00725429 0.756411 xyz
    dof rx ry rz
  end
  begin
    id 8
    name Spine1
    direction 0 0 0
    length 0
    axis -0.000934958 0.0245693 1.46543 xyz
    dof rx ry rz
  end
  begin
    id 9
    name HEadDummy
    direction -0.0255732 0.999672 0.00128215
    length 3.43865
    axis -0.000934958 0.0245693 1.46543 xyz
  end
  begin
    id 10
    name HEad
    direction -0.0472656 0.980052 0.19304
    length 5.12695
    axis -0.000934954 0.0245693 1.46543 xyz
    dof rx ry rz
  end
  begin
    id 11
    name LeftShoulder1Dummy
    direction 0.953098 0.301717 -0.023914
    length 3.68488
    axis -0.000934958 0.0245693 1.46543 xyz
  end
  begin
    id 12
    name LeftShoulder1
    direction 0.962466 0.271167 0.0112566
    length 3.13809
    axis -0.000934958 0.0245693 1.46543 xyz
    dof rx ry rz
  end
  begin
    id 13
    name LeftArm
    direction 0.999943 0.00455037 -0.00961766
    length 11.3419
    axis -23.1648 0.685459 1.22814 xyz
    dof rx ry rz
  end
  begin
    id 14
    name LeftForeArm
    direction 0.999332 0.0131969 0.0340885
    length 8.70632
    axis -9.90633 0.618216 0.0826942 xyz
    dof rx ry rz
  end
  begin
    id 15
    name LeftHand
    direction 0.994373 -0.0366703 0.0993905
    length 5.32135
    axis 0.00675269 0.680415 0.445699 xyz
    dof rx ry rz
  end
  begin
    id 16
    name RightShoulderDummy
    direction -0.967298 0.252589 -0.0230903
    length 3.68488
    axis -0.000934958 0.0245693 1.46543 xyz
  end
  begin
    id 17
    name RightShoulder
    direction -0.975062 0.221602 0.0120823
    length 3.13809
    axis 0.216257 0.0246515 1.45863 xyz
    dof rx ry rz
  end
  begin
    id 18
    name RightArm
    direction -0.99886 -0.00851186 -0.0469687
    length 10.3947
    axis -23.196 0.23503 -0.532632 xyz
    dof rx ry rz
  end
  begin
    id 19
    name RightForeArm
    direction -0.99909 0.00114866 0.0426317
    length 8.68355
    axis -9.91764 -0.134943 0.610517 xyz
    dof rx ry rz
  end
  begin
    id 20
    name RightHand
    direction -0.992888 -0.0489538 0.10852
    length 5.28593
    axis -0.00275396 -0.197403 0.246414 xyz
    dof rx ry rz
  end
  begin
    id 21
    name LeftUpLegDummy
    direction 1 -2.30186e-007 -8.31532e-007
    length 4.04083
    axis 0 0 0 xyz
  end
  begin
    id 22
    name LeftUpLeg
    direction -0.000920097 -1 2.79241e-006
    length 17.4221
    axis -3.48782 0.00143434 -0.0532288 xyz
    dof rx ry rz
  end
  begin
    id 23
    name LeftLeg
    direction -0.000920097 -1 2.7912e-006
    length 17.1239
    axis 3.68162 -0.00806512 -0.0529896 xyz
    dof rx ry rz
  end
  begin
    id 24
    name LeftFoot
    direction -2.57845e-005 -3.987e-007 1
    length 6.72091
    axis 3.02372e-005 -0.00147829 -0.214229 xyz
    dof rx ry rz
  end
  begin
    id 25
    name LeftToes
    direction 0.00813577 -0.00488255 0.999955
    length 3.85048
    axis 3.89895e-005 -0.0014783 -0.214229 xyz
    dof rx ry rz
  end
:hierarchy
  begin
    root RightUpLegDummy SpineDummy LeftUpLegDummy
    RightUpLegDummy RightUpLeg
    RightUpLeg RightLeg
    RightLeg RightFoot
    RightFoot RightToes
    SpineDummy Spine
    Spine Spine1
    Spine1 HEadDummy LeftShoulder1Dummy RightShoulderDummy
    HEadDummy HEad
    LeftShoulder1Dummy LeftShoulder1
    LeftShoulder1 LeftArm
    LeftArm LeftForeArm
    LeftForeArm LeftHand
    RightShoulderDummy RightShoulder
    RightShoulder RightArm
    RightArm RightForeArm
    RightForeArm RightHand
    LeftUpLegDummy LeftUpLeg
    LeftUpLeg LeftLeg
    LeftLeg LeftFoot
    LeftFoot LeftToes
  end

:SAMPLES-PER-SECOND 30
:FULLY-SPECIFIED
:DEGREES
39
root  -15.405 34.6137 -16.6902 -171.527 -0.968674 179.887
RightUpLeg  -8.13181 -14.9384 -1.05305
RightLeg  6.15859 -1.39812 -0.0630614
RightFoot  4.21758 0.0084421 0.0286153
RightToes  -23.7571 -0.111275 -0.199671
Spine  -2.76994 -0.156803 0.231881
Spine1  -5.61935 -0.265423 0.993014
HEad  -55.2646 -3.01252 8.52203
LeftShoulder1  -1.94126e-019 -3.10601e-018 -2.51263e-017
LeftArm  -12.8145 26.7378 -81.1059
LeftForeArm  32.1336 -17.4351 -2.81578
LeftHand  -0.36202 -0.795853 6.91498
RightShoulder  -4.96962e-017 0 -2.36833e-017
RightArm  -39.1355 -24.2231 74.2944
RightForeArm  60.5616 11.7615 1.48561
RightHand  -0.441039 -0.834529 -11.0536
LeftUpLeg  -6.41379 3.73357 2.74069
LeftLeg  5.85796 13.9992 0.525861
LeftFoot  4.62403 -0.0395596 1.24792
LeftToes  -19.5137 1.70063e-006 7.6642e-008
40
root  -15.4189 34.6141 -16.6879 -171.54 -0.871582 179.883
RightUpLeg  -8.13911 -14.8436 -1.08805
RightLeg  6.16564 -1.39211 -0.0618853
RightFoot  4.2487 0.00840055 0.0292091
RightToes  -23.8354 -0.111275 -0.199671
Spine  -2.79968 -0.186819 0.268514
Spine1  -5.67883 -0.321067 1.06783
HEad  -53.6873 -3.23524 8.43308
LeftShoulder1  -1.94126e-019 -3.10601e-018 -2.51263e-017
LeftArm  -12.8294 26.8363 -81.2304
LeftForeArm  32.0546 -17.1194 -2.77127
LeftHand  -0.362071 -0.709689 7.00619
RightShoulder  -4.96962e-017 0 -2.36833e-017
RightArm  -39.0146 -24.2294 74.2188
RightForeArm  60.4328 11.882 1.47619
RightHand  -0.442056 -0.74936 -11.0327
LeftUpLeg  -6.38645 3.84194 2.70688
LeftLeg  5.85566 13.9905 0.524985
LeftFoot  4.62131 -0.0395163 1.24724
LeftToes  -19.5341 1.70063e-006 7.6642e-008
41
root  -15.4302 34.6144 -16.6835 -171.562 -0.774033 179.882
RightUpLeg  -8.15125 -14.7517 -1.11526
RightLeg  6.1923 -1.38613 -0.0595555
RightFoot  4.26527 0.00834748 0.0299675
RightToes  -23.8586 -0.111275 -0.199671
Spine  -2.83056 -0.216082 0.298135
Spine1  -5.74083 -0.375271 1.12837
HEad  -52.1238 -3.57162 8.36604
LeftShoulder1  -1.94126e-019 -3.10601e-018 -2.51263e-017
LeftArm  -12.9581 26.911 -81.3111
LeftForeArm  32.2128 -16.6825 -2.70755
LeftHand  -0.364583 -0.776011 7.01607
RightShoulder  -4.96962e-017 0 -2.36833e-017
RightArm  -38.8557 -24.2458 74.161
RightForeArm  60.2406 12.0065 1.46606
RightHand  -0.440769 -0.732945 -10.9746
LeftUpLeg  -6.3613 4.02289 2.6834
LeftLeg  5.86421 13.9051 0.523894
LeftFoot  4.60032 -0.0387551 1.23541
LeftToes  -19.4856 1.70063e-006 7.6642e-008
42
root  -15.4373 34.6144 -16.6755 -171.581 -0.684479 179.882
RightUpLeg  -8.18107 -14.7107 -1.13082
RightLeg  6.235 -1.34062 -0.0585648
RightFoot  4.2746 0.00828226 0.0308994
RightToes  -23.9045 -0.111275 -0.199671
Spine  -2.85059 -0.236209 0.320755
Spine1  -5.78128 -0.412407 1.1743
HEad  -50.7928 -3.9926 8.32561
LeftShoulder1  -1.94126e-019 -3.10601e-018 -2.51263e-017
LeftArm  -13.1434 26.9501 -81.368
LeftForeArm  32.285 -16.3065 -2.65187
LeftHand  -0.3663 -0.755106 7.04524
RightShoulder  -4.96962e-017 0 -2.36833e-017
RightArm  -38.702 -24.2807 74.1288
RightForeArm  60.0301 12.1398 1.45454
RightHand  -0.438235 -0.75837 -10.9574
LeftUpLeg  -6.35097 4.1436 2.66719
LeftLeg  5.88694 13.8661 0.527903
LeftFoot  4.57742 -0.0382036 1.22684
LeftToes  -19.5263 1.70063e-006 7.6642e-008
43
root  -15.444 34.6142 -16.6652 -171.587 -0.620575 179.881
RightUpLeg  -8.20602 -14.6751 -1.14229
RightLeg  6.23925 -1.30969 -0.0572863
RightFoot  4.29926 0.00816172 0.0326219
RightToes  -23.9104 -0.111275 -0.199671
Spine  -2.84756 -0.246682 0.335386
Spine1  -5.77533 -0.432363 1.20366
HEad  -49.8018 -4.44986 8.17054
LeftShoulder1  -1.94126e-019 -3.10601e-018 -2.51263e-017
LeftArm  -13.3777 26.937 -81.4032
LeftForeArm  32.3489 -16.0284 -2.61063
LeftHand  -0.36711 -0.773063 7.12664
RightShoulder  -4.96962e-017 0 -2.36833e-017
RightArm  -38.5855 -24.3125 74.1123
RightForeArm  59.843 12.2477 1.44468
RightHand  -0.439441 -0.76394 -11.0003
LeftUpLeg  -6.36502 4.22836 2.65013
LeftLeg  5.91336 13.8428 0.533361
LeftFoot  4.56031 -0.0381145 1.22545
LeftToes  -19.5232 1.70063e-006 7.6642e-008
44
root  -15.448 34.6137 -16.6519 -171.586 -0.5439 179.876
RightUpLeg  -8.23066 -14.7113 -1.1509
RightLeg  6.22021 -1.18697 -0.0514255
RightFoot  4.32352 0.00760577 0.0405663
RightToes  -23.9431 -0.111275 -0.199671
Spine  -2.8255 -0.235767 0.343029
Spine1  -5.731 -0.411425 1.21865
HEad  -49.2527 -4.9169 8.02729
LeftShoulder1  -1.94126e-019 -3.10601e-018 -2.51263e-017
LeftArm  -13.6379 26.8892 -81.4278
LeftForeArm  32.3837 -15.9109 -2.5931
LeftHand  -0.369889 -0.680539 7.0707
RightShoulder  -4.96962e-017 0 -2.36833e-017
RightArm  -38.4899 -24.3249 74.0925
RightForeArm  59.7916 12.2842 1.44122
RightHand  -0.443089 -0.738181 -10.9224
LeftUpLeg  -6.38182 4.27874 2.63276
LeftLeg  5.92734 13.8666 0.537615
LeftFoot  4.5499 -0.038227 1.2272
LeftToes  -19.5463 1.70063e-006 7.6642e-008
45
root  -15.4495 34.6128 -16.6358 -171.583 -0.477203 179.869
RightUpLeg  -8.271 -14.7283 -1.15526
RightLeg  6.21898 -1.11615 -0.0482699
RightFoot  4.3513 0.00734162 0.0443409
RightToes  -23.9986 -0.111275 -0.199671
Spine  -2.78391 -0.213953 0.345485
Spine1  -5.64766 -0.370327 1.22168
HEad  -48.9936 -5.29185 7.85727
LeftShoulder1  -1.94126e-019 -3.10601e-018 -2.51263e-017
LeftArm  -13.8211 26.8229 -81.4302
LeftForeArm  32.4682 -15.8671 -2.58247
LeftHand  -0.371839 -0.734964 7.07773
RightShoulder  -4.96962e-017 0 -2.36833e-017
RightArm  -38.3805 -24.3281 74.0755
RightForeArm  59.7642 12.286 1.44126
RightHand  -0.444665 -0.787611 -10.897
LeftUpLeg  -6.40945 4.25524 2.61789
LeftLeg  5.95288 13.9471 0.546838
LeftFoot  4.5482 -0.0384154 1.23013
LeftToes  -19.5655 1.70063e-006 7.6642e-008
46
root  -15.4496 34.6107 -16.6191 -171.57 -0.417984 179.859
RightUpLeg  -8.32965 -14.7259 -1.15494
RightLeg  6.22919 -1.06999 -0.0464203
RightFoot  4.37055 0.0071108 0.0476392
RightToes  -23.996 -0.111275 -0.199671
Spine  -2.73976 -0.192233 0.346154
Spine1  -5.55916 -0.330093 1.22136
HEad  -48.8816 -5.52103 7.6792
LeftShoulder1  -1.94126e-019 -3.10601e-018 -2.51263e-017
LeftArm  -13.9702 26.767 -81.4428
LeftForeArm  32.5478 -15.8699 -2.57928
LeftHand  -0.372721 -0.79872 7.11348
RightShoulder  -4.96962e-017 0 -2.36833e-017
RightArm  -38.4204 -24.2968 74.0438
RightForeArm  59.8466 12.1962 1.44979
RightHand  -0.443289 -0.77436 -10.9653
LeftUpLeg  -6.45676 4.22573 2.60104
LeftLeg  5.9919 14.0264 0.559354
LeftFoot  4.54843 -0.038554 1.23228
LeftToes  -19.5005 1.70063e-006 7.6642e-008
